<svg width="442" height="261" viewBox="0 0 442 261" fill="none" xmlns="http://www.w3.org/2000/svg">
<path d="M192.05 32.9505C176.316 17.2171 156.271 6.50249 134.448 2.16165C112.625 -2.17918 90.0048 0.0486972 69.4481 8.56356C48.8914 17.0784 31.3213 31.4978 18.9597 49.9984C6.598 68.4989 -3.35972e-06 90.2496 0 112.5C3.35972e-06 134.75 6.59802 156.501 18.9597 175.002C31.3213 193.502 48.8914 207.922 69.4481 216.436C90.0048 224.951 112.625 227.179 134.448 222.838C156.271 218.497 176.316 207.783 192.05 192.05L145.237 145.237C138.762 151.712 130.513 156.121 121.532 157.908C112.551 159.694 103.243 158.777 94.7829 155.273C86.3232 151.769 79.0926 145.835 74.0054 138.221C68.9182 130.608 66.2029 121.657 66.2029 112.5C66.2029 103.343 68.9182 94.3922 74.0054 86.7787C79.0926 79.1652 86.3232 73.2312 94.7829 69.7271C103.243 66.2229 112.551 65.3061 121.532 67.0925C130.513 68.8789 138.762 73.2882 145.237 79.763L192.05 32.9505Z" fill="#9EAEE7"/>
<path d="M73.338 115.3C73.338 120.4 72.488 125.16 70.788 129.58C69.088 134 66.674 137.91 63.546 141.31C60.486 144.642 56.814 147.26 52.53 149.164C48.314 151.068 43.69 152.02 38.658 152.02C33.626 152.02 29.002 151.068 24.786 149.164C20.57 147.26 16.898 144.642 13.77 141.31C10.71 137.91 8.33 134 6.63 129.58C4.93 125.16 4.08 120.4 4.08 115.3C4.08 110.2 4.93 105.44 6.63 101.02C8.33 96.6 10.71 92.724 13.77 89.392C16.898 85.992 20.57 83.34 24.786 81.436C29.002 79.532 33.626 78.58 38.658 78.58C43.69 78.58 48.314 79.532 52.53 81.436C56.814 83.34 60.486 85.992 63.546 89.392C66.674 92.724 69.088 96.6 70.788 101.02C72.488 105.44 73.338 110.2 73.338 115.3ZM60.078 115.3C60.078 110.744 59.16 106.63 57.324 102.958C55.488 99.218 52.972 96.26 49.776 94.084C46.58 91.908 42.874 90.82 38.658 90.82C34.442 90.82 30.736 91.908 27.54 94.084C24.344 96.26 21.828 99.184 19.992 102.856C18.224 106.528 17.34 110.676 17.34 115.3C17.34 119.856 18.224 124.004 19.992 127.744C21.828 131.416 24.344 134.34 27.54 136.516C30.736 138.692 34.442 139.78 38.658 139.78C42.874 139.78 46.58 138.692 49.776 136.516C52.972 134.34 55.488 131.416 57.324 127.744C59.16 124.004 60.078 119.856 60.078 115.3ZM112.28 95.41C117.04 95.41 121.29 96.634 125.03 99.082C128.838 101.462 131.83 104.76 134.006 108.976C136.25 113.192 137.372 118.088 137.372 123.664C137.372 129.24 136.25 134.17 134.006 138.454C131.83 142.67 128.872 146.002 125.132 148.45C121.46 150.83 117.312 152.02 112.688 152.02C109.968 152.02 107.418 151.578 105.038 150.694C102.658 149.81 100.55 148.688 98.7145 147.328C96.9465 145.968 95.5525 144.608 94.5325 143.248C93.5805 141.82 93.1045 140.63 93.1045 139.678L96.2665 138.352V145.798C96.2665 147.566 95.6885 149.062 94.5325 150.286C93.3765 151.442 91.9145 152.02 90.1465 152.02C88.3785 152.02 86.9165 151.442 85.7605 150.286C84.6045 149.13 84.0265 147.634 84.0265 145.798V81.742C84.0265 79.974 84.6045 78.512 85.7605 77.356C86.9165 76.132 88.3785 75.52 90.1465 75.52C91.9145 75.52 93.3765 76.132 94.5325 77.356C95.6885 78.512 96.2665 79.974 96.2665 81.742V107.65L94.5325 106.732C94.5325 105.848 95.0085 104.794 95.9605 103.57C96.9125 102.278 98.2045 101.02 99.8365 99.796C101.468 98.504 103.338 97.45 105.446 96.634C107.622 95.818 109.9 95.41 112.28 95.41ZM110.75 106.63C107.758 106.63 105.14 107.378 102.896 108.874C100.652 110.37 98.8845 112.41 97.5925 114.994C96.3685 117.51 95.7565 120.4 95.7565 123.664C95.7565 126.86 96.3685 129.784 97.5925 132.436C98.8845 135.02 100.652 137.06 102.896 138.556C105.14 140.052 107.758 140.8 110.75 140.8C113.742 140.8 116.326 140.052 118.502 138.556C120.746 137.06 122.48 135.02 123.704 132.436C124.996 129.784 125.642 126.86 125.642 123.664C125.642 120.4 124.996 117.51 123.704 114.994C122.48 112.41 120.746 110.37 118.502 108.874C116.326 107.378 113.742 106.63 110.75 106.63ZM161.335 144.778C161.335 146.546 160.723 148.042 159.499 149.266C158.343 150.422 156.881 151 155.113 151C153.413 151 151.985 150.422 150.829 149.266C149.673 148.042 149.095 146.546 149.095 144.778V81.742C149.095 79.974 149.673 78.512 150.829 77.356C152.053 76.132 153.549 75.52 155.317 75.52C157.085 75.52 158.513 76.132 159.601 77.356C160.757 78.512 161.335 79.974 161.335 81.742V144.778ZM187.094 144.778C187.094 146.546 186.516 148.042 185.36 149.266C184.204 150.422 182.742 151 180.974 151C179.206 151 177.744 150.422 176.588 149.266C175.432 148.042 174.854 146.546 174.854 144.778V102.652C174.854 100.884 175.432 99.422 176.588 98.266C177.744 97.042 179.206 96.43 180.974 96.43C182.742 96.43 184.204 97.042 185.36 98.266C186.516 99.422 187.094 100.884 187.094 102.652V144.778ZM180.872 89.8C178.56 89.8 176.928 89.426 175.976 88.678C175.024 87.93 174.548 86.604 174.548 84.7V82.762C174.548 80.79 175.058 79.464 176.078 78.784C177.166 78.036 178.798 77.662 180.974 77.662C183.354 77.662 185.02 78.036 185.972 78.784C186.924 79.532 187.4 80.858 187.4 82.762V84.7C187.4 86.672 186.89 88.032 185.87 88.78C184.85 89.46 183.184 89.8 180.872 89.8ZM222.317 95.41C225.173 95.41 227.791 95.852 230.171 96.736C232.551 97.62 234.591 98.742 236.291 100.102C238.059 101.462 239.419 102.856 240.371 104.284C241.391 105.644 241.901 106.8 241.901 107.752L239.249 109.078V101.632C239.249 99.864 239.827 98.402 240.983 97.246C242.139 96.022 243.601 95.41 245.369 95.41C247.137 95.41 248.599 95.988 249.755 97.144C250.911 98.3 251.489 99.796 251.489 101.632V147.022C251.489 152.938 250.197 157.664 247.613 161.2C245.097 164.804 241.765 167.388 237.617 168.952C233.469 170.584 229.015 171.4 224.255 171.4C222.895 171.4 221.127 171.23 218.951 170.89C216.775 170.55 214.701 170.142 212.729 169.666C210.757 169.19 209.261 168.748 208.241 168.34C206.201 167.456 204.773 166.334 203.957 164.974C203.209 163.682 203.073 162.288 203.549 160.792C204.161 158.82 205.147 157.46 206.507 156.712C207.867 156.032 209.295 155.964 210.791 156.508C211.471 156.712 212.593 157.12 214.157 157.732C215.721 158.344 217.421 158.888 219.257 159.364C221.161 159.908 222.827 160.18 224.255 160.18C229.355 160.18 233.129 159.16 235.577 157.12C238.025 155.08 239.249 152.258 239.249 148.654V139.78L240.473 140.698C240.473 141.582 239.997 142.67 239.045 143.962C238.161 145.186 236.903 146.41 235.271 147.634C233.707 148.858 231.837 149.912 229.661 150.796C227.485 151.612 225.173 152.02 222.725 152.02C217.897 152.02 213.545 150.83 209.669 148.45C205.793 146.002 202.733 142.67 200.489 138.454C198.245 134.17 197.123 129.274 197.123 123.766C197.123 118.19 198.245 113.294 200.489 109.078C202.733 104.794 205.759 101.462 209.567 99.082C213.375 96.634 217.625 95.41 222.317 95.41ZM224.255 106.63C221.195 106.63 218.509 107.378 216.197 108.874C213.885 110.37 212.083 112.41 210.791 114.994C209.499 117.578 208.853 120.502 208.853 123.766C208.853 126.962 209.499 129.852 210.791 132.436C212.083 135.02 213.885 137.06 216.197 138.556C218.509 140.052 221.195 140.8 224.255 140.8C227.383 140.8 230.103 140.052 232.415 138.556C234.727 137.06 236.529 135.02 237.821 132.436C239.113 129.852 239.759 126.962 239.759 123.766C239.759 120.502 239.113 117.578 237.821 114.994C236.529 112.41 234.727 110.37 232.415 108.874C230.103 107.378 227.383 106.63 224.255 106.63ZM308.896 95.41C310.664 95.41 312.126 95.988 313.282 97.144C314.438 98.3 315.016 99.796 315.016 101.632V144.778C315.016 146.546 314.438 148.042 313.282 149.266C312.126 150.422 310.664 151 308.896 151C307.128 151 305.666 150.422 304.51 149.266C303.354 148.042 302.776 146.546 302.776 144.778V139.78L305.02 140.698C305.02 141.582 304.544 142.67 303.592 143.962C302.64 145.186 301.348 146.41 299.716 147.634C298.084 148.858 296.146 149.912 293.902 150.796C291.726 151.612 289.346 152.02 286.762 152.02C282.07 152.02 277.82 150.83 274.012 148.45C270.204 146.002 267.178 142.67 264.934 138.454C262.758 134.17 261.67 129.274 261.67 123.766C261.67 118.19 262.758 113.294 264.934 109.078C267.178 104.794 270.17 101.462 273.91 99.082C277.65 96.634 281.798 95.41 286.354 95.41C289.278 95.41 291.964 95.852 294.412 96.736C296.86 97.62 298.968 98.742 300.736 100.102C302.572 101.462 303.966 102.856 304.918 104.284C305.938 105.644 306.448 106.8 306.448 107.752L302.776 109.078V101.632C302.776 99.864 303.354 98.402 304.51 97.246C305.666 96.022 307.128 95.41 308.896 95.41ZM288.292 140.8C291.284 140.8 293.902 140.052 296.146 138.556C298.39 137.06 300.124 135.02 301.348 132.436C302.64 129.852 303.286 126.962 303.286 123.766C303.286 120.502 302.64 117.578 301.348 114.994C300.124 112.41 298.39 110.37 296.146 108.874C293.902 107.378 291.284 106.63 288.292 106.63C285.368 106.63 282.784 107.378 280.54 108.874C278.296 110.37 276.528 112.41 275.236 114.994C274.012 117.578 273.4 120.502 273.4 123.766C273.4 126.962 274.012 129.852 275.236 132.436C276.528 135.02 278.296 137.06 280.54 138.556C282.784 140.052 285.368 140.8 288.292 140.8ZM334.389 151C332.621 151 331.159 150.422 330.003 149.266C328.847 148.042 328.269 146.546 328.269 144.778V102.652C328.269 100.884 328.847 99.422 330.003 98.266C331.159 97.042 332.621 96.43 334.389 96.43C336.157 96.43 337.619 97.042 338.775 98.266C339.931 99.422 340.509 100.884 340.509 102.652V112.24L339.795 105.406C340.543 103.774 341.495 102.346 342.651 101.122C343.875 99.83 345.235 98.776 346.731 97.96C348.227 97.076 349.825 96.43 351.525 96.022C353.225 95.614 354.925 95.41 356.625 95.41C358.665 95.41 360.365 95.988 361.725 97.144C363.153 98.3 363.867 99.66 363.867 101.224C363.867 103.468 363.289 105.1 362.133 106.12C360.977 107.072 359.719 107.548 358.359 107.548C357.067 107.548 355.877 107.31 354.789 106.834C353.769 106.358 352.579 106.12 351.219 106.12C349.995 106.12 348.737 106.426 347.445 107.038C346.221 107.582 345.065 108.466 343.977 109.69C342.957 110.914 342.107 112.444 341.427 114.28C340.815 116.048 340.509 118.156 340.509 120.604V144.778C340.509 146.546 339.931 148.042 338.775 149.266C337.619 150.422 336.157 151 334.389 151ZM395.908 152.02C390.128 152.02 385.096 150.83 380.812 148.45C376.596 146.002 373.332 142.704 371.02 138.556C368.776 134.408 367.654 129.716 367.654 124.48C367.654 118.36 368.878 113.158 371.326 108.874C373.842 104.522 377.106 101.19 381.118 98.878C385.13 96.566 389.38 95.41 393.868 95.41C397.336 95.41 400.6 96.124 403.66 97.552C406.788 98.98 409.542 100.952 411.922 103.468C414.302 105.916 416.172 108.772 417.532 112.036C418.96 115.3 419.674 118.768 419.674 122.44C419.606 124.072 418.96 125.398 417.736 126.418C416.512 127.438 415.084 127.948 413.452 127.948H374.488L371.428 117.748H408.862L406.618 119.788V117.034C406.482 115.062 405.768 113.294 404.476 111.73C403.252 110.166 401.688 108.942 399.784 108.058C397.948 107.106 395.976 106.63 393.868 106.63C391.828 106.63 389.924 106.902 388.156 107.446C386.388 107.99 384.858 108.908 383.566 110.2C382.274 111.492 381.254 113.226 380.506 115.402C379.758 117.578 379.384 120.332 379.384 123.664C379.384 127.336 380.132 130.464 381.628 133.048C383.192 135.564 385.164 137.502 387.544 138.862C389.992 140.154 392.576 140.8 395.296 140.8C397.812 140.8 399.818 140.596 401.314 140.188C402.81 139.78 404 139.304 404.884 138.76C405.836 138.148 406.686 137.638 407.434 137.23C408.658 136.618 409.814 136.312 410.902 136.312C412.398 136.312 413.622 136.822 414.574 137.842C415.594 138.862 416.104 140.052 416.104 141.412C416.104 143.248 415.152 144.914 413.248 146.41C411.48 147.906 408.998 149.232 405.802 150.388C402.606 151.476 399.308 152.02 395.908 152.02Z" fill="#27272A"/>
<path d="M14.52 233.448C14.712 233.576 14.824 233.744 14.856 233.952C14.888 234.144 14.84 234.336 14.712 234.528C14.6 234.672 14.456 234.752 14.28 234.768C14.104 234.784 13.936 234.752 13.776 234.672C13.168 234.272 12.512 233.96 11.808 233.736C11.12 233.512 10.376 233.4 9.576 233.4C8.6 233.4 7.688 233.576 6.84 233.928C6.008 234.264 5.28 234.76 4.656 235.416C4.032 236.056 3.544 236.816 3.192 237.696C2.856 238.576 2.688 239.544 2.688 240.6C2.688 241.688 2.864 242.68 3.216 243.576C3.568 244.456 4.056 245.216 4.68 245.856C5.32 246.496 6.056 246.984 6.888 247.32C7.72 247.656 8.616 247.824 9.576 247.824C10.36 247.824 11.096 247.712 11.784 247.488C12.488 247.264 13.144 246.96 13.752 246.576C13.912 246.48 14.08 246.448 14.256 246.48C14.448 246.496 14.6 246.584 14.712 246.744C14.856 246.92 14.904 247.112 14.856 247.32C14.824 247.512 14.72 247.664 14.544 247.776C14.144 248.032 13.672 248.272 13.128 248.496C12.584 248.72 12.008 248.896 11.4 249.024C10.792 249.168 10.184 249.24 9.576 249.24C8.424 249.24 7.344 249.032 6.336 248.616C5.328 248.2 4.432 247.616 3.648 246.864C2.864 246.096 2.248 245.184 1.8 244.128C1.368 243.072 1.152 241.896 1.152 240.6C1.152 239.352 1.368 238.208 1.8 237.168C2.232 236.112 2.832 235.2 3.6 234.432C4.368 233.664 5.264 233.064 6.288 232.632C7.312 232.2 8.408 231.984 9.576 231.984C10.488 231.984 11.368 232.112 12.216 232.368C13.064 232.624 13.832 232.984 14.52 233.448ZM28.9997 242.856C28.9997 244.072 28.7357 245.168 28.2077 246.144C27.6797 247.104 26.9597 247.864 26.0477 248.424C25.1357 248.968 24.0957 249.24 22.9277 249.24C21.7917 249.24 20.7597 248.968 19.8317 248.424C18.9197 247.864 18.1917 247.104 17.6477 246.144C17.1197 245.168 16.8557 244.072 16.8557 242.856C16.8557 241.624 17.1197 240.528 17.6477 239.568C18.1917 238.608 18.9197 237.848 19.8317 237.288C20.7597 236.728 21.7917 236.448 22.9277 236.448C24.0957 236.448 25.1357 236.728 26.0477 237.288C26.9597 237.848 27.6797 238.608 28.2077 239.568C28.7357 240.528 28.9997 241.624 28.9997 242.856ZM27.5597 242.856C27.5597 241.88 27.3597 241.016 26.9597 240.264C26.5597 239.496 26.0077 238.896 25.3037 238.464C24.6157 238.016 23.8237 237.792 22.9277 237.792C22.0637 237.792 21.2797 238.016 20.5757 238.464C19.8717 238.896 19.3117 239.496 18.8957 240.264C18.4957 241.016 18.2957 241.88 18.2957 242.856C18.2957 243.832 18.4957 244.696 18.8957 245.448C19.3117 246.2 19.8717 246.8 20.5757 247.248C21.2797 247.68 22.0637 247.896 22.9277 247.896C23.8237 247.896 24.6157 247.68 25.3037 247.248C26.0077 246.8 26.5597 246.2 26.9597 245.448C27.3597 244.696 27.5597 243.832 27.5597 242.856ZM37.5801 236.64C38.5721 236.64 39.4201 236.904 40.1241 237.432C40.8281 237.944 41.3081 238.712 41.5641 239.736L41.2281 239.832L41.3721 239.4C41.5801 238.92 41.9241 238.472 42.4041 238.056C42.9001 237.624 43.4601 237.28 44.0841 237.024C44.7081 236.768 45.3401 236.64 45.9801 236.64C46.9881 236.64 47.7961 236.856 48.4041 237.288C49.0281 237.72 49.4761 238.304 49.7481 239.04C50.0361 239.76 50.1801 240.576 50.1801 241.488V248.28C50.1801 248.472 50.1081 248.64 49.9641 248.784C49.8361 248.928 49.6681 249 49.4601 249C49.2521 249 49.0761 248.928 48.9321 248.784C48.8041 248.64 48.7401 248.472 48.7401 248.28V241.56C48.7401 240.904 48.6361 240.304 48.4281 239.76C48.2201 239.216 47.8921 238.784 47.4441 238.464C46.9961 238.144 46.3961 237.984 45.6441 237.984C44.9881 237.984 44.3561 238.144 43.7481 238.464C43.1561 238.784 42.6681 239.216 42.2841 239.76C41.9161 240.304 41.7321 240.904 41.7321 241.56V248.28C41.7321 248.472 41.6601 248.64 41.5161 248.784C41.3881 248.928 41.2201 249 41.0121 249C40.8041 249 40.6281 248.928 40.4841 248.784C40.3561 248.64 40.2921 248.472 40.2921 248.28V241.488C40.2921 240.832 40.1961 240.24 40.0041 239.712C39.8121 239.184 39.5001 238.768 39.0681 238.464C38.6361 238.144 38.0521 237.984 37.3161 237.984C36.6601 237.984 36.0361 238.144 35.4441 238.464C34.8681 238.768 34.3961 239.184 34.0281 239.712C33.6761 240.24 33.5001 240.832 33.5001 241.488V248.28C33.5001 248.472 33.4281 248.64 33.2841 248.784C33.1401 248.928 32.9721 249 32.7801 249C32.5561 249 32.3801 248.928 32.2521 248.784C32.1241 248.64 32.0601 248.472 32.0601 248.28V237.528C32.0601 237.336 32.1241 237.168 32.2521 237.024C32.3961 236.88 32.5721 236.808 32.7801 236.808C32.9881 236.808 33.1561 236.88 33.2841 237.024C33.4281 237.168 33.5001 237.336 33.5001 237.528V239.76L32.8521 240.648C32.9001 240.168 33.0521 239.688 33.3081 239.208C33.5801 238.728 33.9321 238.296 34.3641 237.912C34.7961 237.528 35.2841 237.224 35.8281 237C36.3881 236.76 36.9721 236.64 37.5801 236.64ZM59.7827 236.64C60.8707 236.64 61.8307 236.912 62.6627 237.456C63.5107 237.984 64.1827 238.72 64.6787 239.664C65.1747 240.592 65.4227 241.664 65.4227 242.88C65.4227 244.096 65.1747 245.176 64.6787 246.12C64.1827 247.064 63.5107 247.808 62.6627 248.352C61.8147 248.896 60.8627 249.168 59.8067 249.168C59.2467 249.168 58.7107 249.088 58.1987 248.928C57.7027 248.752 57.2467 248.52 56.8307 248.232C56.4147 247.944 56.0467 247.608 55.7267 247.224C55.4067 246.824 55.1507 246.392 54.9587 245.928L55.3907 245.616V253.08C55.3907 253.272 55.3187 253.44 55.1747 253.584C55.0467 253.728 54.8787 253.8 54.6707 253.8C54.4627 253.8 54.2867 253.728 54.1427 253.584C54.0147 253.44 53.9507 253.272 53.9507 253.08V237.432C53.9507 237.224 54.0147 237.048 54.1427 236.904C54.2707 236.76 54.4467 236.688 54.6707 236.688C54.8787 236.688 55.0467 236.76 55.1747 236.904C55.3187 237.048 55.3907 237.224 55.3907 237.432V240.024L55.0547 239.832C55.2147 239.336 55.4467 238.896 55.7507 238.512C56.0707 238.112 56.4387 237.776 56.8547 237.504C57.2707 237.216 57.7267 237 58.2227 236.856C58.7187 236.712 59.2387 236.64 59.7827 236.64ZM59.6627 237.984C58.7987 237.984 58.0387 238.2 57.3827 238.632C56.7267 239.048 56.2067 239.624 55.8227 240.36C55.4547 241.08 55.2707 241.92 55.2707 242.88C55.2707 243.824 55.4547 244.672 55.8227 245.424C56.2067 246.176 56.7267 246.768 57.3827 247.2C58.0387 247.616 58.7987 247.824 59.6627 247.824C60.5107 247.824 61.2547 247.616 61.8947 247.2C62.5507 246.768 63.0707 246.176 63.4547 245.424C63.8387 244.672 64.0307 243.824 64.0307 242.88C64.0307 241.936 63.8387 241.096 63.4547 240.36C63.0707 239.624 62.5507 239.048 61.8947 238.632C61.2547 238.2 60.5107 237.984 59.6627 237.984ZM69.2254 249C69.0014 249 68.8254 248.928 68.6974 248.784C68.5694 248.64 68.5054 248.472 68.5054 248.28V237.528C68.5054 237.336 68.5694 237.168 68.6974 237.024C68.8414 236.88 69.0174 236.808 69.2254 236.808C69.4334 236.808 69.6014 236.88 69.7294 237.024C69.8734 237.168 69.9454 237.336 69.9454 237.528V241.128L69.5854 241.2C69.6334 240.64 69.7694 240.088 69.9934 239.544C70.2334 238.984 70.5534 238.472 70.9534 238.008C71.3534 237.544 71.8254 237.168 72.3694 236.88C72.9294 236.592 73.5534 236.448 74.2414 236.448C74.5294 236.448 74.8094 236.512 75.0814 236.64C75.3534 236.752 75.4894 236.944 75.4894 237.216C75.4894 237.456 75.4254 237.64 75.2974 237.768C75.1694 237.896 75.0174 237.96 74.8414 237.96C74.6974 237.96 74.5374 237.92 74.3614 237.84C74.2014 237.76 73.9854 237.72 73.7134 237.72C73.2654 237.72 72.8174 237.856 72.3694 238.128C71.9214 238.384 71.5134 238.736 71.1454 239.184C70.7774 239.632 70.4814 240.136 70.2574 240.696C70.0494 241.24 69.9454 241.792 69.9454 242.352V248.28C69.9454 248.472 69.8734 248.64 69.7294 248.784C69.5854 248.928 69.4174 249 69.2254 249ZM88.6247 242.856C88.6247 244.072 88.3607 245.168 87.8327 246.144C87.3047 247.104 86.5847 247.864 85.6727 248.424C84.7607 248.968 83.7207 249.24 82.5527 249.24C81.4167 249.24 80.3847 248.968 79.4567 248.424C78.5447 247.864 77.8167 247.104 77.2727 246.144C76.7447 245.168 76.4807 244.072 76.4807 242.856C76.4807 241.624 76.7447 240.528 77.2727 239.568C77.8167 238.608 78.5447 237.848 79.4567 237.288C80.3847 236.728 81.4167 236.448 82.5527 236.448C83.7207 236.448 84.7607 236.728 85.6727 237.288C86.5847 237.848 87.3047 238.608 87.8327 239.568C88.3607 240.528 88.6247 241.624 88.6247 242.856ZM87.1847 242.856C87.1847 241.88 86.9847 241.016 86.5847 240.264C86.1847 239.496 85.6327 238.896 84.9287 238.464C84.2407 238.016 83.4487 237.792 82.5527 237.792C81.6887 237.792 80.9047 238.016 80.2007 238.464C79.4967 238.896 78.9367 239.496 78.5207 240.264C78.1207 241.016 77.9207 241.88 77.9207 242.856C77.9207 243.832 78.1207 244.696 78.5207 245.448C78.9367 246.2 79.4967 246.8 80.2007 247.248C80.9047 247.68 81.6887 247.896 82.5527 247.896C83.4487 247.896 84.2407 247.68 84.9287 247.248C85.6327 246.8 86.1847 246.2 86.5847 245.448C86.9847 244.696 87.1847 243.832 87.1847 242.856ZM97.2051 236.64C98.1971 236.64 99.0451 236.904 99.7491 237.432C100.453 237.944 100.933 238.712 101.189 239.736L100.853 239.832L100.997 239.4C101.205 238.92 101.549 238.472 102.029 238.056C102.525 237.624 103.085 237.28 103.709 237.024C104.333 236.768 104.965 236.64 105.605 236.64C106.613 236.64 107.421 236.856 108.029 237.288C108.653 237.72 109.101 238.304 109.373 239.04C109.661 239.76 109.805 240.576 109.805 241.488V248.28C109.805 248.472 109.733 248.64 109.589 248.784C109.461 248.928 109.293 249 109.085 249C108.877 249 108.701 248.928 108.557 248.784C108.429 248.64 108.365 248.472 108.365 248.28V241.56C108.365 240.904 108.261 240.304 108.053 239.76C107.845 239.216 107.517 238.784 107.069 238.464C106.621 238.144 106.021 237.984 105.269 237.984C104.613 237.984 103.981 238.144 103.373 238.464C102.781 238.784 102.293 239.216 101.909 239.76C101.541 240.304 101.357 240.904 101.357 241.56V248.28C101.357 248.472 101.285 248.64 101.141 248.784C101.013 248.928 100.845 249 100.637 249C100.429 249 100.253 248.928 100.109 248.784C99.9811 248.64 99.9171 248.472 99.9171 248.28V241.488C99.9171 240.832 99.8211 240.24 99.6291 239.712C99.4371 239.184 99.1251 238.768 98.6931 238.464C98.2611 238.144 97.6771 237.984 96.9411 237.984C96.2851 237.984 95.6611 238.144 95.0691 238.464C94.4931 238.768 94.0211 239.184 93.6531 239.712C93.3011 240.24 93.1251 240.832 93.1251 241.488V248.28C93.1251 248.472 93.0531 248.64 92.9091 248.784C92.7651 248.928 92.5971 249 92.4051 249C92.1811 249 92.0051 248.928 91.8771 248.784C91.7491 248.64 91.6851 248.472 91.6851 248.28V237.528C91.6851 237.336 91.7491 237.168 91.8771 237.024C92.0211 236.88 92.1971 236.808 92.4051 236.808C92.6131 236.808 92.7811 236.88 92.9091 237.024C93.0531 237.168 93.1251 237.336 93.1251 237.528V239.76L92.4771 240.648C92.5251 240.168 92.6771 239.688 92.9331 239.208C93.2051 238.728 93.5571 238.296 93.9891 237.912C94.4211 237.528 94.9091 237.224 95.4531 237C96.0131 236.76 96.5971 236.64 97.2051 236.64ZM114.968 248.28C114.968 248.472 114.896 248.64 114.752 248.784C114.608 248.928 114.44 249 114.248 249C114.04 249 113.864 248.928 113.72 248.784C113.592 248.64 113.528 248.472 113.528 248.28V237.24C113.528 237.048 113.592 236.88 113.72 236.736C113.864 236.592 114.04 236.52 114.248 236.52C114.456 236.52 114.624 236.592 114.752 236.736C114.896 236.88 114.968 237.048 114.968 237.24V248.28ZM114.248 234.912C113.912 234.912 113.656 234.84 113.48 234.696C113.32 234.536 113.24 234.312 113.24 234.024V233.784C113.24 233.496 113.328 233.28 113.504 233.136C113.696 232.976 113.952 232.896 114.272 232.896C114.576 232.896 114.808 232.976 114.968 233.136C115.144 233.28 115.232 233.496 115.232 233.784V234.024C115.232 234.312 115.144 234.536 114.968 234.696C114.808 234.84 114.568 234.912 114.248 234.912ZM118.013 247.056C117.885 246.864 117.821 246.68 117.821 246.504C117.837 246.312 117.941 246.16 118.133 246.048C118.261 245.936 118.405 245.888 118.565 245.904C118.741 245.92 118.901 246 119.045 246.144C119.477 246.704 119.997 247.16 120.605 247.512C121.229 247.848 121.965 248.016 122.812 248.016C123.261 248.016 123.701 247.944 124.133 247.8C124.581 247.64 124.949 247.408 125.237 247.104C125.525 246.784 125.669 246.384 125.669 245.904C125.669 245.408 125.525 245.008 125.237 244.704C124.949 244.4 124.573 244.16 124.109 243.984C123.661 243.808 123.181 243.656 122.669 243.528C122.125 243.384 121.597 243.224 121.085 243.048C120.573 242.856 120.117 242.624 119.717 242.352C119.333 242.064 119.021 241.72 118.781 241.32C118.541 240.92 118.421 240.432 118.421 239.856C118.421 239.184 118.605 238.592 118.973 238.08C119.341 237.568 119.837 237.168 120.461 236.88C121.101 236.592 121.821 236.448 122.621 236.448C123.021 236.448 123.453 236.504 123.917 236.616C124.381 236.712 124.837 236.88 125.285 237.12C125.733 237.36 126.133 237.688 126.485 238.104C126.629 238.248 126.701 238.416 126.701 238.608C126.701 238.784 126.621 238.944 126.461 239.088C126.333 239.184 126.181 239.232 126.005 239.232C125.845 239.232 125.709 239.168 125.597 239.04C125.213 238.608 124.757 238.28 124.229 238.056C123.701 237.832 123.133 237.72 122.525 237.72C122.061 237.72 121.621 237.8 121.205 237.96C120.805 238.104 120.469 238.328 120.197 238.632C119.925 238.936 119.789 239.336 119.789 239.832C119.821 240.296 119.981 240.672 120.269 240.96C120.573 241.248 120.965 241.488 121.445 241.68C121.941 241.872 122.493 242.048 123.101 242.208C123.613 242.336 124.101 242.488 124.565 242.664C125.045 242.84 125.461 243.064 125.813 243.336C126.181 243.592 126.469 243.92 126.677 244.32C126.901 244.72 127.013 245.224 127.013 245.832C127.013 246.536 126.813 247.144 126.413 247.656C126.029 248.168 125.509 248.56 124.853 248.832C124.197 249.104 123.469 249.24 122.669 249.24C121.805 249.24 120.965 249.072 120.149 248.736C119.349 248.4 118.637 247.84 118.013 247.056ZM129.263 247.056C129.135 246.864 129.071 246.68 129.071 246.504C129.087 246.312 129.191 246.16 129.383 246.048C129.511 245.936 129.655 245.888 129.815 245.904C129.991 245.92 130.151 246 130.295 246.144C130.727 246.704 131.247 247.16 131.855 247.512C132.479 247.848 133.215 248.016 134.062 248.016C134.511 248.016 134.951 247.944 135.383 247.8C135.831 247.64 136.199 247.408 136.487 247.104C136.775 246.784 136.919 246.384 136.919 245.904C136.919 245.408 136.775 245.008 136.487 244.704C136.199 244.4 135.823 244.16 135.359 243.984C134.911 243.808 134.431 243.656 133.919 243.528C133.375 243.384 132.847 243.224 132.335 243.048C131.823 242.856 131.367 242.624 130.967 242.352C130.583 242.064 130.271 241.72 130.031 241.32C129.791 240.92 129.671 240.432 129.671 239.856C129.671 239.184 129.855 238.592 130.223 238.08C130.591 237.568 131.087 237.168 131.711 236.88C132.351 236.592 133.071 236.448 133.871 236.448C134.271 236.448 134.703 236.504 135.167 236.616C135.631 236.712 136.087 236.88 136.535 237.12C136.983 237.36 137.383 237.688 137.735 238.104C137.879 238.248 137.951 238.416 137.951 238.608C137.951 238.784 137.871 238.944 137.711 239.088C137.583 239.184 137.431 239.232 137.255 239.232C137.095 239.232 136.959 239.168 136.847 239.04C136.463 238.608 136.007 238.28 135.479 238.056C134.951 237.832 134.383 237.72 133.775 237.72C133.311 237.72 132.871 237.8 132.455 237.96C132.055 238.104 131.719 238.328 131.447 238.632C131.175 238.936 131.039 239.336 131.039 239.832C131.071 240.296 131.231 240.672 131.519 240.96C131.823 241.248 132.215 241.488 132.695 241.68C133.191 241.872 133.743 242.048 134.351 242.208C134.863 242.336 135.351 242.488 135.815 242.664C136.295 242.84 136.711 243.064 137.063 243.336C137.431 243.592 137.719 243.92 137.927 244.32C138.151 244.72 138.263 245.224 138.263 245.832C138.263 246.536 138.063 247.144 137.663 247.656C137.279 248.168 136.759 248.56 136.103 248.832C135.447 249.104 134.719 249.24 133.919 249.24C133.055 249.24 132.215 249.072 131.399 248.736C130.599 248.4 129.887 247.84 129.263 247.056ZM152.633 242.856C152.633 244.072 152.369 245.168 151.841 246.144C151.313 247.104 150.593 247.864 149.681 248.424C148.769 248.968 147.729 249.24 146.561 249.24C145.425 249.24 144.393 248.968 143.465 248.424C142.553 247.864 141.825 247.104 141.281 246.144C140.753 245.168 140.489 244.072 140.489 242.856C140.489 241.624 140.753 240.528 141.281 239.568C141.825 238.608 142.553 237.848 143.465 237.288C144.393 236.728 145.425 236.448 146.561 236.448C147.729 236.448 148.769 236.728 149.681 237.288C150.593 237.848 151.313 238.608 151.841 239.568C152.369 240.528 152.633 241.624 152.633 242.856ZM151.193 242.856C151.193 241.88 150.993 241.016 150.593 240.264C150.193 239.496 149.641 238.896 148.937 238.464C148.249 238.016 147.457 237.792 146.561 237.792C145.697 237.792 144.913 238.016 144.209 238.464C143.505 238.896 142.945 239.496 142.529 240.264C142.129 241.016 141.929 241.88 141.929 242.856C141.929 243.832 142.129 244.696 142.529 245.448C142.945 246.2 143.505 246.8 144.209 247.248C144.913 247.68 145.697 247.896 146.561 247.896C147.457 247.896 148.249 247.68 148.937 247.248C149.641 246.8 150.193 246.2 150.593 245.448C150.993 244.696 151.193 243.832 151.193 242.856ZM167.655 236.448C168.423 236.448 169.127 236.536 169.767 236.712C170.407 236.872 170.919 237.096 171.303 237.384C171.703 237.672 171.903 237.984 171.903 238.32C171.903 238.48 171.847 238.64 171.735 238.8C171.623 238.944 171.471 239.016 171.279 239.016C171.087 239.016 170.927 238.968 170.799 238.872C170.687 238.776 170.567 238.664 170.439 238.536C170.327 238.408 170.159 238.288 169.935 238.176C169.727 238.08 169.431 237.992 169.047 237.912C168.663 237.832 168.223 237.792 167.727 237.792C166.831 237.792 166.023 238.016 165.303 238.464C164.583 238.912 164.015 239.52 163.599 240.288C163.183 241.04 162.975 241.888 162.975 242.832C162.975 243.792 163.175 244.656 163.575 245.424C163.975 246.192 164.527 246.8 165.231 247.248C165.935 247.68 166.759 247.896 167.703 247.896C168.343 247.896 168.839 247.84 169.191 247.728C169.543 247.616 169.847 247.488 170.103 247.344C170.407 247.168 170.623 247 170.751 246.84C170.895 246.664 171.079 246.576 171.303 246.576C171.511 246.576 171.663 246.64 171.759 246.768C171.871 246.88 171.927 247.032 171.927 247.224C171.927 247.48 171.735 247.768 171.351 248.088C170.983 248.392 170.471 248.664 169.815 248.904C169.159 249.128 168.407 249.24 167.559 249.24C166.359 249.24 165.303 248.96 164.391 248.4C163.495 247.84 162.791 247.08 162.279 246.12C161.783 245.144 161.535 244.048 161.535 242.832C161.535 241.664 161.791 240.6 162.303 239.64C162.815 238.68 163.527 237.912 164.439 237.336C165.367 236.744 166.439 236.448 167.655 236.448ZM186.101 242.856C186.101 244.072 185.837 245.168 185.309 246.144C184.781 247.104 184.061 247.864 183.149 248.424C182.237 248.968 181.197 249.24 180.029 249.24C178.893 249.24 177.861 248.968 176.933 248.424C176.021 247.864 175.293 247.104 174.749 246.144C174.221 245.168 173.957 244.072 173.957 242.856C173.957 241.624 174.221 240.528 174.749 239.568C175.293 238.608 176.021 237.848 176.933 237.288C177.861 236.728 178.893 236.448 180.029 236.448C181.197 236.448 182.237 236.728 183.149 237.288C184.061 237.848 184.781 238.608 185.309 239.568C185.837 240.528 186.101 241.624 186.101 242.856ZM184.661 242.856C184.661 241.88 184.461 241.016 184.061 240.264C183.661 239.496 183.109 238.896 182.405 238.464C181.717 238.016 180.925 237.792 180.029 237.792C179.165 237.792 178.381 238.016 177.677 238.464C176.973 238.896 176.413 239.496 175.997 240.264C175.597 241.016 175.397 241.88 175.397 242.856C175.397 243.832 175.597 244.696 175.997 245.448C176.413 246.2 176.973 246.8 177.677 247.248C178.381 247.68 179.165 247.896 180.029 247.896C180.925 247.896 181.717 247.68 182.405 247.248C183.109 246.8 183.661 246.2 184.061 245.448C184.461 244.696 184.661 243.832 184.661 242.856ZM194.682 236.64C195.674 236.64 196.522 236.904 197.226 237.432C197.93 237.944 198.41 238.712 198.666 239.736L198.33 239.832L198.474 239.4C198.682 238.92 199.026 238.472 199.506 238.056C200.002 237.624 200.562 237.28 201.186 237.024C201.81 236.768 202.442 236.64 203.082 236.64C204.09 236.64 204.898 236.856 205.506 237.288C206.13 237.72 206.578 238.304 206.85 239.04C207.138 239.76 207.282 240.576 207.282 241.488V248.28C207.282 248.472 207.21 248.64 207.066 248.784C206.938 248.928 206.77 249 206.562 249C206.354 249 206.178 248.928 206.034 248.784C205.906 248.64 205.842 248.472 205.842 248.28V241.56C205.842 240.904 205.738 240.304 205.53 239.76C205.322 239.216 204.994 238.784 204.546 238.464C204.098 238.144 203.498 237.984 202.746 237.984C202.09 237.984 201.458 238.144 200.85 238.464C200.258 238.784 199.77 239.216 199.386 239.76C199.018 240.304 198.834 240.904 198.834 241.56V248.28C198.834 248.472 198.762 248.64 198.618 248.784C198.49 248.928 198.322 249 198.114 249C197.906 249 197.73 248.928 197.586 248.784C197.458 248.64 197.394 248.472 197.394 248.28V241.488C197.394 240.832 197.298 240.24 197.106 239.712C196.914 239.184 196.602 238.768 196.17 238.464C195.738 238.144 195.154 237.984 194.418 237.984C193.762 237.984 193.138 238.144 192.546 238.464C191.97 238.768 191.498 239.184 191.13 239.712C190.778 240.24 190.602 240.832 190.602 241.488V248.28C190.602 248.472 190.53 248.64 190.386 248.784C190.242 248.928 190.074 249 189.882 249C189.658 249 189.482 248.928 189.354 248.784C189.226 248.64 189.162 248.472 189.162 248.28V237.528C189.162 237.336 189.226 237.168 189.354 237.024C189.498 236.88 189.674 236.808 189.882 236.808C190.09 236.808 190.258 236.88 190.386 237.024C190.53 237.168 190.602 237.336 190.602 237.528V239.76L189.954 240.648C190.002 240.168 190.154 239.688 190.41 239.208C190.682 238.728 191.034 238.296 191.466 237.912C191.898 237.528 192.386 237.224 192.93 237C193.49 236.76 194.074 236.64 194.682 236.64ZM227.671 236.736C227.879 236.736 228.047 236.808 228.175 236.952C228.319 237.096 228.391 237.272 228.391 237.48V248.28C228.391 248.472 228.319 248.64 228.175 248.784C228.031 248.928 227.863 249 227.671 249C227.463 249 227.287 248.928 227.143 248.784C227.015 248.64 226.951 248.472 226.951 248.28V245.424L227.359 245.232C227.359 245.68 227.231 246.136 226.975 246.6C226.735 247.064 226.399 247.496 225.967 247.896C225.535 248.296 225.023 248.624 224.431 248.88C223.855 249.12 223.231 249.24 222.559 249.24C221.471 249.24 220.495 248.96 219.631 248.4C218.783 247.84 218.111 247.072 217.615 246.096C217.135 245.12 216.895 244.024 216.895 242.808C216.895 241.56 217.143 240.464 217.639 239.52C218.135 238.56 218.807 237.808 219.655 237.264C220.503 236.72 221.463 236.448 222.535 236.448C223.223 236.448 223.863 236.568 224.455 236.808C225.063 237.048 225.591 237.376 226.039 237.792C226.487 238.208 226.831 238.688 227.071 239.232C227.327 239.76 227.455 240.312 227.455 240.888L226.951 240.528V237.48C226.951 237.272 227.015 237.096 227.143 236.952C227.287 236.808 227.463 236.736 227.671 236.736ZM222.679 247.896C223.527 247.896 224.279 247.68 224.935 247.248C225.591 246.8 226.103 246.192 226.471 245.424C226.855 244.64 227.047 243.768 227.047 242.808C227.047 241.864 226.855 241.016 226.471 240.264C226.103 239.512 225.591 238.912 224.935 238.464C224.279 238.016 223.527 237.792 222.679 237.792C221.847 237.792 221.095 238.008 220.423 238.44C219.767 238.872 219.247 239.464 218.863 240.216C218.495 240.968 218.311 241.832 218.311 242.808C218.311 243.768 218.495 244.64 218.863 245.424C219.247 246.192 219.767 246.8 220.423 247.248C221.079 247.68 221.831 247.896 222.679 247.896ZM244.276 249.24C243.044 249.24 241.956 248.976 241.012 248.448C240.068 247.92 239.332 247.184 238.804 246.24C238.276 245.296 238.012 244.192 238.012 242.928C238.012 241.568 238.276 240.408 238.804 239.448C239.348 238.488 240.044 237.752 240.892 237.24C241.756 236.712 242.668 236.448 243.628 236.448C244.332 236.448 245.012 236.576 245.668 236.832C246.34 237.072 246.932 237.44 247.444 237.936C247.972 238.416 248.388 239.008 248.692 239.712C249.012 240.416 249.188 241.232 249.22 242.16C249.204 242.352 249.124 242.52 248.98 242.664C248.836 242.792 248.668 242.856 248.476 242.856H238.852L238.564 241.56H248.02L247.708 241.848V241.368C247.644 240.616 247.404 239.976 246.988 239.448C246.572 238.92 246.068 238.52 245.476 238.248C244.884 237.976 244.268 237.84 243.628 237.84C243.148 237.84 242.652 237.936 242.14 238.128C241.644 238.32 241.188 238.624 240.772 239.04C240.372 239.44 240.044 239.96 239.788 240.6C239.532 241.224 239.404 241.968 239.404 242.832C239.404 243.776 239.596 244.632 239.98 245.4C240.364 246.168 240.916 246.776 241.636 247.224C242.372 247.672 243.244 247.896 244.252 247.896C244.812 247.896 245.316 247.816 245.764 247.656C246.212 247.496 246.604 247.288 246.94 247.032C247.276 246.76 247.556 246.48 247.78 246.192C247.956 246.048 248.132 245.976 248.308 245.976C248.468 245.976 248.604 246.04 248.716 246.168C248.844 246.296 248.908 246.44 248.908 246.6C248.908 246.792 248.828 246.96 248.668 247.104C248.188 247.68 247.564 248.184 246.796 248.616C246.028 249.032 245.188 249.24 244.276 249.24ZM251.802 236.616C252.042 236.616 252.234 236.72 252.378 236.928L260.874 247.92C260.986 248.048 261.042 248.192 261.042 248.352C261.042 248.544 260.97 248.712 260.826 248.856C260.682 249 260.514 249.072 260.322 249.072C260.098 249.072 259.898 248.968 259.722 248.76L251.202 237.768C251.106 237.656 251.058 237.512 251.058 237.336C251.058 237.128 251.13 236.96 251.274 236.832C251.434 236.688 251.61 236.616 251.802 236.616ZM251.802 249.072C251.642 249.072 251.482 249.016 251.322 248.904C251.178 248.792 251.106 248.632 251.106 248.424C251.106 248.248 251.162 248.096 251.274 247.968L255.33 242.76L256.122 243.912L252.378 248.784C252.234 248.976 252.042 249.072 251.802 249.072ZM260.322 236.616C260.53 236.616 260.69 236.68 260.802 236.808C260.93 236.92 260.994 237.064 260.994 237.24C260.994 237.32 260.978 237.4 260.946 237.48C260.93 237.56 260.89 237.632 260.826 237.696L256.77 243.024L256.026 241.872L259.722 236.928C259.898 236.72 260.098 236.616 260.322 236.616ZM268.905 236.448C269.673 236.448 270.377 236.536 271.017 236.712C271.657 236.872 272.169 237.096 272.553 237.384C272.953 237.672 273.153 237.984 273.153 238.32C273.153 238.48 273.097 238.64 272.985 238.8C272.873 238.944 272.721 239.016 272.529 239.016C272.337 239.016 272.177 238.968 272.049 238.872C271.937 238.776 271.817 238.664 271.689 238.536C271.577 238.408 271.409 238.288 271.185 238.176C270.977 238.08 270.681 237.992 270.297 237.912C269.913 237.832 269.473 237.792 268.977 237.792C268.081 237.792 267.273 238.016 266.553 238.464C265.833 238.912 265.265 239.52 264.849 240.288C264.433 241.04 264.225 241.888 264.225 242.832C264.225 243.792 264.425 244.656 264.825 245.424C265.225 246.192 265.777 246.8 266.481 247.248C267.185 247.68 268.009 247.896 268.953 247.896C269.593 247.896 270.089 247.84 270.441 247.728C270.793 247.616 271.097 247.488 271.353 247.344C271.657 247.168 271.873 247 272.001 246.84C272.145 246.664 272.329 246.576 272.553 246.576C272.761 246.576 272.913 246.64 273.009 246.768C273.121 246.88 273.177 247.032 273.177 247.224C273.177 247.48 272.985 247.768 272.601 248.088C272.233 248.392 271.721 248.664 271.065 248.904C270.409 249.128 269.657 249.24 268.809 249.24C267.609 249.24 266.553 248.96 265.641 248.4C264.745 247.84 264.041 247.08 263.529 246.12C263.033 245.144 262.785 244.048 262.785 242.832C262.785 241.664 263.041 240.6 263.553 239.64C264.065 238.68 264.777 237.912 265.689 237.336C266.617 236.744 267.689 236.448 268.905 236.448ZM281.471 249.24C280.239 249.24 279.151 248.976 278.207 248.448C277.263 247.92 276.527 247.184 275.999 246.24C275.471 245.296 275.207 244.192 275.207 242.928C275.207 241.568 275.471 240.408 275.999 239.448C276.543 238.488 277.239 237.752 278.087 237.24C278.951 236.712 279.863 236.448 280.823 236.448C281.527 236.448 282.207 236.576 282.863 236.832C283.535 237.072 284.127 237.44 284.639 237.936C285.167 238.416 285.583 239.008 285.887 239.712C286.207 240.416 286.383 241.232 286.415 242.16C286.399 242.352 286.319 242.52 286.175 242.664C286.031 242.792 285.863 242.856 285.671 242.856H276.047L275.759 241.56H285.215L284.903 241.848V241.368C284.839 240.616 284.599 239.976 284.183 239.448C283.767 238.92 283.263 238.52 282.671 238.248C282.079 237.976 281.463 237.84 280.823 237.84C280.343 237.84 279.847 237.936 279.335 238.128C278.839 238.32 278.383 238.624 277.967 239.04C277.567 239.44 277.239 239.96 276.983 240.6C276.727 241.224 276.599 241.968 276.599 242.832C276.599 243.776 276.791 244.632 277.175 245.4C277.559 246.168 278.111 246.776 278.831 247.224C279.567 247.672 280.439 247.896 281.447 247.896C282.007 247.896 282.511 247.816 282.959 247.656C283.407 247.496 283.799 247.288 284.135 247.032C284.471 246.76 284.751 246.48 284.975 246.192C285.151 246.048 285.327 245.976 285.503 245.976C285.663 245.976 285.799 246.04 285.911 246.168C286.039 246.296 286.103 246.44 286.103 246.6C286.103 246.792 286.023 246.96 285.863 247.104C285.383 247.68 284.759 248.184 283.991 248.616C283.223 249.032 282.383 249.24 281.471 249.24ZM291.082 248.28C291.082 248.472 291.01 248.64 290.866 248.784C290.722 248.928 290.554 249 290.362 249C290.154 249 289.978 248.928 289.834 248.784C289.706 248.64 289.642 248.472 289.642 248.28V231.96C289.642 231.768 289.714 231.6 289.858 231.456C290.002 231.312 290.17 231.24 290.362 231.24C290.57 231.24 290.738 231.312 290.866 231.456C291.01 231.6 291.082 231.768 291.082 231.96V248.28ZM300.338 249.24C299.106 249.24 298.018 248.976 297.074 248.448C296.13 247.92 295.394 247.184 294.866 246.24C294.338 245.296 294.074 244.192 294.074 242.928C294.074 241.568 294.338 240.408 294.866 239.448C295.41 238.488 296.106 237.752 296.954 237.24C297.818 236.712 298.73 236.448 299.69 236.448C300.394 236.448 301.074 236.576 301.73 236.832C302.402 237.072 302.994 237.44 303.506 237.936C304.034 238.416 304.45 239.008 304.754 239.712C305.074 240.416 305.25 241.232 305.282 242.16C305.266 242.352 305.186 242.52 305.042 242.664C304.898 242.792 304.73 242.856 304.538 242.856H294.914L294.626 241.56H304.082L303.77 241.848V241.368C303.706 240.616 303.466 239.976 303.05 239.448C302.634 238.92 302.13 238.52 301.538 238.248C300.946 237.976 300.33 237.84 299.69 237.84C299.21 237.84 298.714 237.936 298.202 238.128C297.706 238.32 297.25 238.624 296.834 239.04C296.434 239.44 296.106 239.96 295.85 240.6C295.594 241.224 295.466 241.968 295.466 242.832C295.466 243.776 295.658 244.632 296.042 245.4C296.426 246.168 296.978 246.776 297.698 247.224C298.434 247.672 299.306 247.896 300.314 247.896C300.874 247.896 301.378 247.816 301.826 247.656C302.274 247.496 302.666 247.288 303.002 247.032C303.338 246.76 303.618 246.48 303.842 246.192C304.018 246.048 304.194 245.976 304.37 245.976C304.53 245.976 304.666 246.04 304.778 246.168C304.906 246.296 304.97 246.44 304.97 246.6C304.97 246.792 304.89 246.96 304.73 247.104C304.25 247.68 303.626 248.184 302.858 248.616C302.09 249.032 301.25 249.24 300.338 249.24ZM300.05 233.112L297.962 234.864C297.85 234.96 297.746 235.04 297.65 235.104C297.57 235.168 297.466 235.2 297.338 235.2C297.226 235.2 297.13 235.16 297.05 235.08C296.97 235 296.93 234.912 296.93 234.816C296.93 234.752 296.938 234.688 296.954 234.624C296.986 234.56 297.042 234.496 297.122 234.432L298.874 232.512C299.05 232.24 299.314 232.104 299.666 232.104H300.05C300.226 232.104 300.37 232.136 300.482 232.2C300.61 232.248 300.722 232.352 300.818 232.512L302.546 234.408C302.61 234.488 302.65 234.56 302.666 234.624C302.698 234.672 302.714 234.736 302.714 234.816C302.714 234.896 302.674 234.976 302.594 235.056C302.53 235.136 302.442 235.176 302.33 235.176C302.202 235.176 302.09 235.144 301.994 235.08C301.898 235.016 301.794 234.936 301.682 234.84L299.546 233.136L300.05 233.112ZM314.149 236.448C315.205 236.448 316.045 236.664 316.669 237.096C317.309 237.512 317.765 238.088 318.037 238.824C318.325 239.544 318.469 240.344 318.469 241.224V248.28C318.469 248.472 318.397 248.64 318.253 248.784C318.109 248.928 317.941 249 317.749 249C317.525 249 317.349 248.928 317.221 248.784C317.093 248.64 317.029 248.472 317.029 248.28V241.296C317.029 240.656 316.925 240.072 316.717 239.544C316.509 239.016 316.165 238.592 315.685 238.272C315.221 237.952 314.605 237.792 313.837 237.792C313.149 237.792 312.493 237.952 311.869 238.272C311.261 238.592 310.765 239.016 310.381 239.544C309.997 240.072 309.805 240.656 309.805 241.296V248.28C309.805 248.472 309.733 248.64 309.589 248.784C309.445 248.928 309.277 249 309.085 249C308.861 249 308.685 248.928 308.557 248.784C308.429 248.64 308.365 248.472 308.365 248.28V237.528C308.365 237.336 308.429 237.168 308.557 237.024C308.701 236.88 308.877 236.808 309.085 236.808C309.293 236.808 309.461 236.88 309.589 237.024C309.733 237.168 309.805 237.336 309.805 237.528V239.544L309.253 240.408C309.285 239.896 309.445 239.408 309.733 238.944C310.037 238.464 310.421 238.04 310.885 237.672C311.349 237.288 311.861 236.992 312.421 236.784C312.997 236.56 313.573 236.448 314.149 236.448ZM327.64 236.448C328.408 236.448 329.112 236.536 329.752 236.712C330.392 236.872 330.904 237.096 331.288 237.384C331.688 237.672 331.888 237.984 331.888 238.32C331.888 238.48 331.832 238.64 331.72 238.8C331.608 238.944 331.456 239.016 331.264 239.016C331.072 239.016 330.912 238.968 330.784 238.872C330.672 238.776 330.552 238.664 330.424 238.536C330.312 238.408 330.144 238.288 329.92 238.176C329.712 238.08 329.416 237.992 329.032 237.912C328.648 237.832 328.208 237.792 327.712 237.792C326.816 237.792 326.008 238.016 325.288 238.464C324.568 238.912 324 239.52 323.584 240.288C323.168 241.04 322.96 241.888 322.96 242.832C322.96 243.792 323.16 244.656 323.56 245.424C323.96 246.192 324.512 246.8 325.216 247.248C325.92 247.68 326.744 247.896 327.688 247.896C328.328 247.896 328.824 247.84 329.176 247.728C329.528 247.616 329.832 247.488 330.088 247.344C330.392 247.168 330.608 247 330.736 246.84C330.88 246.664 331.064 246.576 331.288 246.576C331.496 246.576 331.648 246.64 331.744 246.768C331.856 246.88 331.912 247.032 331.912 247.224C331.912 247.48 331.72 247.768 331.336 248.088C330.968 248.392 330.456 248.664 329.8 248.904C329.144 249.128 328.392 249.24 327.544 249.24C326.344 249.24 325.288 248.96 324.376 248.4C323.48 247.84 322.776 247.08 322.264 246.12C321.768 245.144 321.52 244.048 321.52 242.832C321.52 241.664 321.776 240.6 322.288 239.64C322.8 238.68 323.512 237.912 324.424 237.336C325.352 236.744 326.424 236.448 327.64 236.448ZM336.054 248.28C336.054 248.472 335.982 248.64 335.838 248.784C335.694 248.928 335.526 249 335.334 249C335.126 249 334.95 248.928 334.806 248.784C334.678 248.64 334.614 248.472 334.614 248.28V237.24C334.614 237.048 334.678 236.88 334.806 236.736C334.95 236.592 335.126 236.52 335.334 236.52C335.542 236.52 335.71 236.592 335.838 236.736C335.982 236.88 336.054 237.048 336.054 237.24V248.28ZM335.334 234.912C334.998 234.912 334.742 234.84 334.566 234.696C334.406 234.536 334.326 234.312 334.326 234.024V233.784C334.326 233.496 334.414 233.28 334.59 233.136C334.782 232.976 335.038 232.896 335.358 232.896C335.662 232.896 335.894 232.976 336.054 233.136C336.23 233.28 336.318 233.496 336.318 233.784V234.024C336.318 234.312 336.23 234.536 336.054 234.696C335.894 234.84 335.654 234.912 335.334 234.912ZM349.85 236.736C350.058 236.736 350.226 236.808 350.354 236.952C350.498 237.096 350.57 237.272 350.57 237.48V248.28C350.57 248.472 350.498 248.64 350.354 248.784C350.21 248.928 350.042 249 349.85 249C349.642 249 349.466 248.928 349.322 248.784C349.194 248.64 349.13 248.472 349.13 248.28V245.424L349.538 245.232C349.538 245.68 349.41 246.136 349.154 246.6C348.914 247.064 348.578 247.496 348.146 247.896C347.714 248.296 347.202 248.624 346.61 248.88C346.034 249.12 345.41 249.24 344.738 249.24C343.65 249.24 342.674 248.96 341.81 248.4C340.962 247.84 340.29 247.072 339.794 246.096C339.314 245.12 339.074 244.024 339.074 242.808C339.074 241.56 339.322 240.464 339.818 239.52C340.314 238.56 340.986 237.808 341.834 237.264C342.682 236.72 343.642 236.448 344.714 236.448C345.402 236.448 346.042 236.568 346.634 236.808C347.242 237.048 347.77 237.376 348.218 237.792C348.666 238.208 349.01 238.688 349.25 239.232C349.506 239.76 349.634 240.312 349.634 240.888L349.13 240.528V237.48C349.13 237.272 349.194 237.096 349.322 236.952C349.466 236.808 349.642 236.736 349.85 236.736ZM344.858 247.896C345.706 247.896 346.458 247.68 347.114 247.248C347.77 246.8 348.282 246.192 348.65 245.424C349.034 244.64 349.226 243.768 349.226 242.808C349.226 241.864 349.034 241.016 348.65 240.264C348.282 239.512 347.77 238.912 347.114 238.464C346.458 238.016 345.706 237.792 344.858 237.792C344.026 237.792 343.274 238.008 342.602 238.44C341.946 238.872 341.426 239.464 341.042 240.216C340.674 240.968 340.49 241.832 340.49 242.808C340.49 243.768 340.674 244.64 341.042 245.424C341.426 246.192 341.946 246.8 342.602 247.248C343.258 247.68 344.01 247.896 344.858 247.896ZM365.352 231.336C365.592 231.336 365.848 231.36 366.12 231.408C366.408 231.456 366.656 231.544 366.864 231.672C367.072 231.784 367.176 231.96 367.176 232.2C367.176 232.376 367.112 232.536 366.984 232.68C366.856 232.808 366.712 232.872 366.552 232.872C366.392 232.872 366.192 232.832 365.952 232.752C365.712 232.656 365.456 232.608 365.184 232.608C364.848 232.608 364.56 232.688 364.32 232.848C364.08 232.992 363.896 233.208 363.768 233.496C363.64 233.768 363.576 234.104 363.576 234.504V248.28C363.576 248.472 363.504 248.64 363.36 248.784C363.232 248.928 363.064 249 362.856 249C362.648 249 362.472 248.928 362.328 248.784C362.2 248.64 362.136 248.472 362.136 248.28V234.504C362.136 233.48 362.432 232.696 363.024 232.152C363.632 231.608 364.408 231.336 365.352 231.336ZM366.264 236.976C366.456 236.976 366.616 237.04 366.744 237.168C366.872 237.296 366.936 237.456 366.936 237.648C366.936 237.84 366.872 238 366.744 238.128C366.616 238.256 366.456 238.32 366.264 238.32H360.384C360.208 238.32 360.048 238.256 359.904 238.128C359.776 237.984 359.712 237.824 359.712 237.648C359.712 237.44 359.776 237.28 359.904 237.168C360.048 237.04 360.208 236.976 360.384 236.976H366.264ZM370.944 248.28C370.944 248.472 370.872 248.64 370.728 248.784C370.584 248.928 370.416 249 370.224 249C370.016 249 369.84 248.928 369.696 248.784C369.568 248.64 369.504 248.472 369.504 248.28V237.24C369.504 237.048 369.568 236.88 369.696 236.736C369.84 236.592 370.016 236.52 370.224 236.52C370.432 236.52 370.6 236.592 370.728 236.736C370.872 236.88 370.944 237.048 370.944 237.24V248.28ZM370.224 234.912C369.888 234.912 369.632 234.84 369.456 234.696C369.296 234.536 369.216 234.312 369.216 234.024V233.784C369.216 233.496 369.304 233.28 369.48 233.136C369.672 232.976 369.928 232.896 370.248 232.896C370.552 232.896 370.784 232.976 370.944 233.136C371.12 233.28 371.208 233.496 371.208 233.784V234.024C371.208 234.312 371.12 234.536 370.944 234.696C370.784 234.84 370.544 234.912 370.224 234.912ZM373.973 247.056C373.845 246.864 373.781 246.68 373.781 246.504C373.797 246.312 373.901 246.16 374.093 246.048C374.221 245.936 374.365 245.888 374.525 245.904C374.701 245.92 374.861 246 375.005 246.144C375.437 246.704 375.957 247.16 376.565 247.512C377.189 247.848 377.925 248.016 378.773 248.016C379.221 248.016 379.661 247.944 380.093 247.8C380.541 247.64 380.909 247.408 381.197 247.104C381.485 246.784 381.629 246.384 381.629 245.904C381.629 245.408 381.485 245.008 381.197 244.704C380.909 244.4 380.533 244.16 380.069 243.984C379.621 243.808 379.141 243.656 378.629 243.528C378.085 243.384 377.557 243.224 377.045 243.048C376.533 242.856 376.077 242.624 375.677 242.352C375.293 242.064 374.981 241.72 374.741 241.32C374.501 240.92 374.381 240.432 374.381 239.856C374.381 239.184 374.565 238.592 374.933 238.08C375.301 237.568 375.797 237.168 376.421 236.88C377.061 236.592 377.781 236.448 378.581 236.448C378.981 236.448 379.413 236.504 379.877 236.616C380.341 236.712 380.797 236.88 381.245 237.12C381.693 237.36 382.093 237.688 382.445 238.104C382.589 238.248 382.661 238.416 382.661 238.608C382.661 238.784 382.581 238.944 382.421 239.088C382.293 239.184 382.141 239.232 381.965 239.232C381.805 239.232 381.669 239.168 381.557 239.04C381.173 238.608 380.717 238.28 380.189 238.056C379.661 237.832 379.093 237.72 378.485 237.72C378.021 237.72 377.581 237.8 377.165 237.96C376.765 238.104 376.429 238.328 376.157 238.632C375.885 238.936 375.749 239.336 375.749 239.832C375.781 240.296 375.941 240.672 376.229 240.96C376.533 241.248 376.925 241.488 377.405 241.68C377.901 241.872 378.453 242.048 379.061 242.208C379.573 242.336 380.061 242.488 380.525 242.664C381.005 242.84 381.421 243.064 381.773 243.336C382.141 243.592 382.429 243.92 382.637 244.32C382.861 244.72 382.973 245.224 382.973 245.832C382.973 246.536 382.773 247.144 382.373 247.656C381.989 248.168 381.469 248.56 380.813 248.832C380.157 249.104 379.429 249.24 378.629 249.24C377.765 249.24 376.925 249.072 376.109 248.736C375.309 248.4 374.597 247.84 373.973 247.056ZM391.319 236.448C392.087 236.448 392.791 236.536 393.431 236.712C394.071 236.872 394.583 237.096 394.967 237.384C395.367 237.672 395.567 237.984 395.567 238.32C395.567 238.48 395.511 238.64 395.399 238.8C395.287 238.944 395.135 239.016 394.943 239.016C394.751 239.016 394.591 238.968 394.463 238.872C394.351 238.776 394.231 238.664 394.103 238.536C393.991 238.408 393.823 238.288 393.599 238.176C393.391 238.08 393.095 237.992 392.711 237.912C392.327 237.832 391.887 237.792 391.391 237.792C390.495 237.792 389.687 238.016 388.967 238.464C388.247 238.912 387.679 239.52 387.263 240.288C386.847 241.04 386.639 241.888 386.639 242.832C386.639 243.792 386.839 244.656 387.239 245.424C387.639 246.192 388.191 246.8 388.895 247.248C389.599 247.68 390.423 247.896 391.367 247.896C392.007 247.896 392.503 247.84 392.855 247.728C393.207 247.616 393.511 247.488 393.767 247.344C394.071 247.168 394.287 247 394.415 246.84C394.559 246.664 394.743 246.576 394.967 246.576C395.175 246.576 395.327 246.64 395.423 246.768C395.535 246.88 395.591 247.032 395.591 247.224C395.591 247.48 395.399 247.768 395.015 248.088C394.647 248.392 394.135 248.664 393.479 248.904C392.823 249.128 392.071 249.24 391.223 249.24C390.023 249.24 388.967 248.96 388.055 248.4C387.159 247.84 386.455 247.08 385.943 246.12C385.447 245.144 385.199 244.048 385.199 242.832C385.199 241.664 385.455 240.6 385.967 239.64C386.479 238.68 387.191 237.912 388.103 237.336C389.031 236.744 390.103 236.448 391.319 236.448ZM408.397 236.736C408.605 236.736 408.773 236.808 408.901 236.952C409.045 237.096 409.117 237.272 409.117 237.48V248.28C409.117 248.472 409.045 248.64 408.901 248.784C408.757 248.928 408.589 249 408.397 249C408.189 249 408.013 248.928 407.869 248.784C407.741 248.64 407.677 248.472 407.677 248.28V245.424L408.085 245.232C408.085 245.68 407.957 246.136 407.701 246.6C407.461 247.064 407.125 247.496 406.693 247.896C406.261 248.296 405.749 248.624 405.157 248.88C404.581 249.12 403.957 249.24 403.285 249.24C402.197 249.24 401.221 248.96 400.357 248.4C399.509 247.84 398.837 247.072 398.341 246.096C397.861 245.12 397.621 244.024 397.621 242.808C397.621 241.56 397.869 240.464 398.365 239.52C398.861 238.56 399.533 237.808 400.381 237.264C401.229 236.72 402.189 236.448 403.261 236.448C403.949 236.448 404.589 236.568 405.181 236.808C405.789 237.048 406.317 237.376 406.765 237.792C407.213 238.208 407.557 238.688 407.797 239.232C408.053 239.76 408.181 240.312 408.181 240.888L407.677 240.528V237.48C407.677 237.272 407.741 237.096 407.869 236.952C408.013 236.808 408.189 236.736 408.397 236.736ZM403.405 247.896C404.253 247.896 405.005 247.68 405.661 247.248C406.317 246.8 406.829 246.192 407.197 245.424C407.581 244.64 407.773 243.768 407.773 242.808C407.773 241.864 407.581 241.016 407.197 240.264C406.829 239.512 406.317 238.912 405.661 238.464C405.005 238.016 404.253 237.792 403.405 237.792C402.573 237.792 401.821 238.008 401.149 238.44C400.493 238.872 399.973 239.464 399.589 240.216C399.221 240.968 399.037 241.832 399.037 242.808C399.037 243.768 399.221 244.64 399.589 245.424C399.973 246.192 400.493 246.8 401.149 247.248C401.805 247.68 402.557 247.896 403.405 247.896ZM414.48 248.28C414.48 248.472 414.408 248.64 414.264 248.784C414.12 248.928 413.952 249 413.76 249C413.552 249 413.376 248.928 413.232 248.784C413.104 248.64 413.04 248.472 413.04 248.28V231.96C413.04 231.768 413.112 231.6 413.256 231.456C413.4 231.312 413.568 231.24 413.76 231.24C413.968 231.24 414.136 231.312 414.264 231.456C414.408 231.6 414.48 231.768 414.48 231.96V248.28ZM418.763 244.296C418.459 244.296 418.291 244.128 418.259 243.792L417.995 233.184C417.995 232.896 418.051 232.664 418.163 232.488C418.275 232.296 418.475 232.2 418.763 232.2C419.035 232.2 419.227 232.296 419.339 232.488C419.467 232.664 419.523 232.896 419.507 233.184L419.243 243.792C419.227 244.128 419.067 244.296 418.763 244.296ZM418.691 249C418.419 249 418.203 248.92 418.043 248.76C417.899 248.584 417.827 248.36 417.827 248.088V247.56C417.827 247.272 417.899 247.048 418.043 246.888C418.203 246.728 418.419 246.648 418.691 246.648H418.835C419.123 246.648 419.331 246.728 419.459 246.888C419.603 247.048 419.675 247.272 419.675 247.56V248.088C419.675 248.36 419.603 248.584 419.459 248.76C419.331 248.92 419.123 249 418.835 249H418.691Z" fill="#27272A"/>
</svg>
