<svg width="67" height="34" viewBox="0 0 67 34" fill="none" xmlns="http://www.w3.org/2000/svg">
<path d="M28.9287 4.96338C26.5588 2.59343 23.5393 0.97948 20.2521 0.325613C16.9648 -0.328253 13.5576 0.00733533 10.4611 1.28994C7.36459 2.57255 4.71798 4.74457 2.85592 7.53133C0.993867 10.3181 -5.06079e-07 13.5944 0 16.946C5.06079e-07 20.2977 0.993869 23.574 2.85593 26.3608C4.71798 29.1475 7.36459 31.3195 10.4611 32.6022C13.5576 33.8848 16.9648 34.2203 20.2521 33.5665C23.5393 32.9126 26.5588 31.2987 28.9287 28.9287L21.8773 21.8773C20.902 22.8526 19.6594 23.5168 18.3066 23.7858C16.9538 24.0549 15.5516 23.9168 14.2773 23.389C13.003 22.8612 11.9138 21.9673 11.1475 20.8205C10.3813 19.6736 9.97225 18.3253 9.97225 16.946C9.97224 15.5668 10.3813 14.2184 11.1475 13.0716C11.9138 11.9248 13.003 11.0309 14.2773 10.5031C15.5516 9.97526 16.9538 9.83716 18.3066 10.1062C19.6594 10.3753 20.902 11.0395 21.8773 12.0148L28.9287 4.96338Z" fill="#3A3573"/>
<path d="M10.066 17.1C10.066 17.8 9.94933 18.4533 9.716 19.06C9.48267 19.6667 9.15133 20.2033 8.722 20.67C8.302 21.1273 7.798 21.4867 7.21 21.748C6.63133 22.0093 5.99667 22.14 5.306 22.14C4.61533 22.14 3.98067 22.0093 3.402 21.748C2.82333 21.4867 2.31933 21.1273 1.89 20.67C1.47 20.2033 1.14333 19.6667 0.91 19.06C0.676667 18.4533 0.56 17.8 0.56 17.1C0.56 16.4 0.676667 15.7467 0.91 15.14C1.14333 14.5333 1.47 14.0013 1.89 13.544C2.31933 13.0773 2.82333 12.7133 3.402 12.452C3.98067 12.1907 4.61533 12.06 5.306 12.06C5.99667 12.06 6.63133 12.1907 7.21 12.452C7.798 12.7133 8.302 13.0773 8.722 13.544C9.15133 14.0013 9.48267 14.5333 9.716 15.14C9.94933 15.7467 10.066 16.4 10.066 17.1ZM8.246 17.1C8.246 16.4747 8.12 15.91 7.868 15.406C7.616 14.8927 7.27067 14.4867 6.832 14.188C6.39333 13.8893 5.88467 13.74 5.306 13.74C4.72733 13.74 4.21867 13.8893 3.78 14.188C3.34133 14.4867 2.996 14.888 2.744 15.392C2.50133 15.896 2.38 16.4653 2.38 17.1C2.38 17.7253 2.50133 18.2947 2.744 18.808C2.996 19.312 3.34133 19.7133 3.78 20.012C4.21867 20.3107 4.72733 20.46 5.306 20.46C5.88467 20.46 6.39333 20.3107 6.832 20.012C7.27067 19.7133 7.616 19.312 7.868 18.808C8.12 18.2947 8.246 17.7253 8.246 17.1ZM15.411 14.37C16.0644 14.37 16.6477 14.538 17.161 14.874C17.6837 15.2007 18.0944 15.6533 18.393 16.232C18.701 16.8107 18.855 17.4827 18.855 18.248C18.855 19.0133 18.701 19.69 18.393 20.278C18.0944 20.8567 17.6884 21.314 17.175 21.65C16.671 21.9767 16.1017 22.14 15.467 22.14C15.0937 22.14 14.7437 22.0793 14.417 21.958C14.0904 21.8367 13.801 21.6827 13.549 21.496C13.3064 21.3093 13.115 21.1227 12.975 20.936C12.8444 20.74 12.779 20.5767 12.779 20.446L13.213 20.264V21.286C13.213 21.5287 13.1337 21.734 12.975 21.902C12.8164 22.0607 12.6157 22.14 12.373 22.14C12.1304 22.14 11.9297 22.0607 11.771 21.902C11.6124 21.7433 11.533 21.538 11.533 21.286V12.494C11.533 12.2513 11.6124 12.0507 11.771 11.892C11.9297 11.724 12.1304 11.64 12.373 11.64C12.6157 11.64 12.8164 11.724 12.975 11.892C13.1337 12.0507 13.213 12.2513 13.213 12.494V16.05L12.975 15.924C12.975 15.8027 13.0404 15.658 13.171 15.49C13.3017 15.3127 13.479 15.14 13.703 14.972C13.927 14.7947 14.1837 14.65 14.473 14.538C14.7717 14.426 15.0844 14.37 15.411 14.37ZM15.201 15.91C14.7904 15.91 14.431 16.0127 14.123 16.218C13.815 16.4233 13.5724 16.7033 13.395 17.058C13.227 17.4033 13.143 17.8 13.143 18.248C13.143 18.6867 13.227 19.088 13.395 19.452C13.5724 19.8067 13.815 20.0867 14.123 20.292C14.431 20.4973 14.7904 20.6 15.201 20.6C15.6117 20.6 15.9664 20.4973 16.265 20.292C16.573 20.0867 16.811 19.8067 16.979 19.452C17.1564 19.088 17.245 18.6867 17.245 18.248C17.245 17.8 17.1564 17.4033 16.979 17.058C16.811 16.7033 16.573 16.4233 16.265 16.218C15.9664 16.0127 15.6117 15.91 15.201 15.91ZM22.1441 21.146C22.1441 21.3887 22.0601 21.594 21.8921 21.762C21.7334 21.9207 21.5327 22 21.2901 22C21.0567 22 20.8607 21.9207 20.7021 21.762C20.5434 21.594 20.4641 21.3887 20.4641 21.146V12.494C20.4641 12.2513 20.5434 12.0507 20.7021 11.892C20.8701 11.724 21.0754 11.64 21.3181 11.64C21.5607 11.64 21.7567 11.724 21.9061 11.892C22.0647 12.0507 22.1441 12.2513 22.1441 12.494V21.146ZM25.6795 21.146C25.6795 21.3887 25.6002 21.594 25.4415 21.762C25.2828 21.9207 25.0822 22 24.8395 22C24.5968 22 24.3962 21.9207 24.2375 21.762C24.0788 21.594 23.9995 21.3887 23.9995 21.146V15.364C23.9995 15.1213 24.0788 14.9207 24.2375 14.762C24.3962 14.594 24.5968 14.51 24.8395 14.51C25.0822 14.51 25.2828 14.594 25.4415 14.762C25.6002 14.9207 25.6795 15.1213 25.6795 15.364V21.146ZM24.8255 13.6C24.5082 13.6 24.2842 13.5487 24.1535 13.446C24.0228 13.3433 23.9575 13.1613 23.9575 12.9V12.634C23.9575 12.3633 24.0275 12.1813 24.1675 12.088C24.3168 11.9853 24.5408 11.934 24.8395 11.934C25.1662 11.934 25.3948 11.9853 25.5255 12.088C25.6562 12.1907 25.7215 12.3727 25.7215 12.634V12.9C25.7215 13.1707 25.6515 13.3573 25.5115 13.46C25.3715 13.5533 25.1428 13.6 24.8255 13.6ZM30.5141 14.37C30.9061 14.37 31.2654 14.4307 31.5921 14.552C31.9188 14.6733 32.1988 14.8273 32.4321 15.014C32.6748 15.2007 32.8614 15.392 32.9921 15.588C33.1321 15.7747 33.2021 15.9333 33.2021 16.064L32.8381 16.246V15.224C32.8381 14.9813 32.9174 14.7807 33.0761 14.622C33.2348 14.454 33.4354 14.37 33.6781 14.37C33.9208 14.37 34.1214 14.4493 34.2801 14.608C34.4388 14.7667 34.5181 14.972 34.5181 15.224V21.454C34.5181 22.266 34.3408 22.9147 33.9861 23.4C33.6408 23.8947 33.1834 24.2493 32.6141 24.464C32.0448 24.688 31.4334 24.8 30.7801 24.8C30.5934 24.8 30.3508 24.7767 30.0521 24.73C29.7534 24.6833 29.4688 24.6273 29.1981 24.562C28.9274 24.4967 28.7221 24.436 28.5821 24.38C28.3021 24.2587 28.1061 24.1047 27.9941 23.918C27.8914 23.7407 27.8728 23.5493 27.9381 23.344C28.0221 23.0733 28.1574 22.8867 28.3441 22.784C28.5308 22.6907 28.7268 22.6813 28.9321 22.756C29.0254 22.784 29.1794 22.84 29.3941 22.924C29.6088 23.008 29.8421 23.0827 30.0941 23.148C30.3554 23.2227 30.5841 23.26 30.7801 23.26C31.4801 23.26 31.9981 23.12 32.3341 22.84C32.6701 22.56 32.8381 22.1727 32.8381 21.678V20.46L33.0061 20.586C33.0061 20.7073 32.9408 20.8567 32.8101 21.034C32.6888 21.202 32.5161 21.37 32.2921 21.538C32.0774 21.706 31.8208 21.8507 31.5221 21.972C31.2234 22.084 30.9061 22.14 30.5701 22.14C29.9074 22.14 29.3101 21.9767 28.7781 21.65C28.2461 21.314 27.8261 20.8567 27.5181 20.278C27.2101 19.69 27.0561 19.018 27.0561 18.262C27.0561 17.4967 27.2101 16.8247 27.5181 16.246C27.8261 15.658 28.2414 15.2007 28.7641 14.874C29.2868 14.538 29.8701 14.37 30.5141 14.37ZM30.7801 15.91C30.3601 15.91 29.9914 16.0127 29.6741 16.218C29.3568 16.4233 29.1094 16.7033 28.9321 17.058C28.7548 17.4127 28.6661 17.814 28.6661 18.262C28.6661 18.7007 28.7548 19.0973 28.9321 19.452C29.1094 19.8067 29.3568 20.0867 29.6741 20.292C29.9914 20.4973 30.3601 20.6 30.7801 20.6C31.2094 20.6 31.5828 20.4973 31.9001 20.292C32.2174 20.0867 32.4648 19.8067 32.6421 19.452C32.8194 19.0973 32.9081 18.7007 32.9081 18.262C32.9081 17.814 32.8194 17.4127 32.6421 17.058C32.4648 16.7033 32.2174 16.4233 31.9001 16.218C31.5828 16.0127 31.2094 15.91 30.7801 15.91ZM42.3975 14.37C42.6401 14.37 42.8408 14.4493 42.9995 14.608C43.1581 14.7667 43.2375 14.972 43.2375 15.224V21.146C43.2375 21.3887 43.1581 21.594 42.9995 21.762C42.8408 21.9207 42.6401 22 42.3975 22C42.1548 22 41.9541 21.9207 41.7955 21.762C41.6368 21.594 41.5575 21.3887 41.5575 21.146V20.46L41.8655 20.586C41.8655 20.7073 41.8001 20.8567 41.6695 21.034C41.5388 21.202 41.3615 21.37 41.1375 21.538C40.9135 21.706 40.6475 21.8507 40.3395 21.972C40.0408 22.084 39.7141 22.14 39.3595 22.14C38.7155 22.14 38.1321 21.9767 37.6095 21.65C37.0868 21.314 36.6715 20.8567 36.3635 20.278C36.0648 19.69 35.9155 19.018 35.9155 18.262C35.9155 17.4967 36.0648 16.8247 36.3635 16.246C36.6715 15.658 37.0821 15.2007 37.5955 14.874C38.1088 14.538 38.6781 14.37 39.3035 14.37C39.7048 14.37 40.0735 14.4307 40.4095 14.552C40.7455 14.6733 41.0348 14.8273 41.2775 15.014C41.5295 15.2007 41.7208 15.392 41.8515 15.588C41.9915 15.7747 42.0615 15.9333 42.0615 16.064L41.5575 16.246V15.224C41.5575 14.9813 41.6368 14.7807 41.7955 14.622C41.9541 14.454 42.1548 14.37 42.3975 14.37ZM39.5695 20.6C39.9801 20.6 40.3395 20.4973 40.6475 20.292C40.9555 20.0867 41.1935 19.8067 41.3615 19.452C41.5388 19.0973 41.6275 18.7007 41.6275 18.262C41.6275 17.814 41.5388 17.4127 41.3615 17.058C41.1935 16.7033 40.9555 16.4233 40.6475 16.218C40.3395 16.0127 39.9801 15.91 39.5695 15.91C39.1681 15.91 38.8135 16.0127 38.5055 16.218C38.1975 16.4233 37.9548 16.7033 37.7775 17.058C37.6095 17.4127 37.5255 17.814 37.5255 18.262C37.5255 18.7007 37.6095 19.0973 37.7775 19.452C37.9548 19.8067 38.1975 20.0867 38.5055 20.292C38.8135 20.4973 39.1681 20.6 39.5695 20.6ZM45.8965 22C45.6538 22 45.4532 21.9207 45.2945 21.762C45.1358 21.594 45.0565 21.3887 45.0565 21.146V15.364C45.0565 15.1213 45.1358 14.9207 45.2945 14.762C45.4532 14.594 45.6538 14.51 45.8965 14.51C46.1392 14.51 46.3398 14.594 46.4985 14.762C46.6572 14.9207 46.7365 15.1213 46.7365 15.364V16.68L46.6385 15.742C46.7412 15.518 46.8718 15.322 47.0305 15.154C47.1985 14.9767 47.3852 14.832 47.5905 14.72C47.7958 14.5987 48.0152 14.51 48.2485 14.454C48.4818 14.398 48.7152 14.37 48.9485 14.37C49.2285 14.37 49.4618 14.4493 49.6485 14.608C49.8445 14.7667 49.9425 14.9533 49.9425 15.168C49.9425 15.476 49.8632 15.7 49.7045 15.84C49.5458 15.9707 49.3732 16.036 49.1865 16.036C49.0092 16.036 48.8458 16.0033 48.6965 15.938C48.5565 15.8727 48.3932 15.84 48.2065 15.84C48.0385 15.84 47.8658 15.882 47.6885 15.966C47.5205 16.0407 47.3618 16.162 47.2125 16.33C47.0725 16.498 46.9558 16.708 46.8625 16.96C46.7785 17.2027 46.7365 17.492 46.7365 17.828V21.146C46.7365 21.3887 46.6572 21.594 46.4985 21.762C46.3398 21.9207 46.1392 22 45.8965 22ZM54.3403 22.14C53.547 22.14 52.8563 21.9767 52.2683 21.65C51.6897 21.314 51.2417 20.8613 50.9243 20.292C50.6163 19.7227 50.4623 19.0787 50.4623 18.36C50.4623 17.52 50.6303 16.806 50.9663 16.218C51.3117 15.6207 51.7597 15.1633 52.3103 14.846C52.861 14.5287 53.4443 14.37 54.0603 14.37C54.5363 14.37 54.9843 14.468 55.4043 14.664C55.8337 14.86 56.2117 15.1307 56.5383 15.476C56.865 15.812 57.1217 16.204 57.3083 16.652C57.5043 17.1 57.6023 17.576 57.6023 18.08C57.593 18.304 57.5043 18.486 57.3363 18.626C57.1683 18.766 56.9723 18.836 56.7483 18.836H51.4003L50.9803 17.436H56.1183L55.8103 17.716V17.338C55.7917 17.0673 55.6937 16.8247 55.5163 16.61C55.3483 16.3953 55.1337 16.2273 54.8723 16.106C54.6203 15.9753 54.3497 15.91 54.0603 15.91C53.7803 15.91 53.519 15.9473 53.2763 16.022C53.0337 16.0967 52.8237 16.2227 52.6463 16.4C52.469 16.5773 52.329 16.8153 52.2263 17.114C52.1237 17.4127 52.0723 17.7907 52.0723 18.248C52.0723 18.752 52.175 19.1813 52.3803 19.536C52.595 19.8813 52.8657 20.1473 53.1923 20.334C53.5283 20.5113 53.883 20.6 54.2563 20.6C54.6017 20.6 54.877 20.572 55.0823 20.516C55.2877 20.46 55.451 20.3947 55.5723 20.32C55.703 20.236 55.8197 20.166 55.9223 20.11C56.0903 20.026 56.249 19.984 56.3983 19.984C56.6037 19.984 56.7717 20.054 56.9023 20.194C57.0423 20.334 57.1123 20.4973 57.1123 20.684C57.1123 20.936 56.9817 21.1647 56.7203 21.37C56.4777 21.5753 56.137 21.7573 55.6983 21.916C55.2597 22.0653 54.807 22.14 54.3403 22.14Z" fill="white"/>
</svg>
